<?xml version="1.0" encoding="utf-8"?>
<!-- Generator: Adobe Illustrator 16.0.4, SVG Export Plug-In . SVG Version: 6.00 Build 0)  -->
<!DOCTYPE svg PUBLIC "-//W3C//DTD SVG 1.1//EN" "http://www.w3.org/Graphics/SVG/1.1/DTD/svg11.dtd">
<svg version="1.1" id="Ebene_1" xmlns="http://www.w3.org/2000/svg" xmlns:xlink="http://www.w3.org/1999/xlink" x="0px" y="0px"
	 width="64px" height="64px" viewBox="0 0 64 64" enable-background="new 0 0 64 64" xml:space="preserve">
<path fill="#D00F1C" d="M32.061,53.776c-0.021,0.002-0.042-0.001-0.062-0.01c-0.02,0.009-0.034,0.016-0.062,0.01
	c-0.057,0.001-0.111-0.022-0.152-0.062L8.847,30.775C1.874,23.801,2.131,16.474,9.608,8.994l0.228-0.229
	c2.941-2.94,6.051-4.432,9.24-4.432c3.929,0,8.006,2.168,12.464,6.627L32,11.378l0.468-0.424c4.449-4.453,8.529-6.622,12.456-6.622
	c3.188,0,6.299,1.492,9.24,4.432l0.227,0.229c7.479,7.479,7.735,14.809,0.764,21.781l-22.941,22.94
	C32.173,53.755,32.118,53.777,32.061,53.776z"/>
</svg>
