<?xml version="1.0" encoding="utf-8"?>
<!-- Generator: Adobe Illustrator 16.0.4, SVG Export Plug-In . SVG Version: 6.00 Build 0)  -->
<!DOCTYPE svg PUBLIC "-//W3C//DTD SVG 1.1//EN" "http://www.w3.org/Graphics/SVG/1.1/DTD/svg11.dtd">
<svg version="1.1" id="Ebene_1" xmlns="http://www.w3.org/2000/svg" xmlns:xlink="http://www.w3.org/1999/xlink" viewBox="0 0 60 60" enable-background="new 0 0 60 60" xml:space="preserve">
<path fill="#333333" d="M29.999,1.5C14.285,1.5,1.5,14.285,1.5,29.999C1.5,45.715,14.285,58.5,29.999,58.5
	C45.715,58.5,58.5,45.715,58.5,29.999C58.5,14.285,45.715,1.5,29.999,1.5z M7.962,29.999c0-12.15,9.887-22.037,22.037-22.037
	c5.004,0,9.606,1.695,13.309,4.513L12.475,43.307C9.656,39.604,7.962,35.003,7.962,29.999z M29.999,52.038
	c-4.536,0-8.759-1.382-12.267-3.742l30.564-30.563c2.359,3.507,3.74,7.73,3.74,12.266C52.037,42.15,42.151,52.038,29.999,52.038z"/>
</svg>
