<?xml version="1.0" encoding="utf-8"?>
<!-- Generator: Adobe Illustrator 16.0.4, SVG Export Plug-In . SVG Version: 6.00 Build 0)  -->
<!DOCTYPE svg PUBLIC "-//W3C//DTD SVG 1.1//EN" "http://www.w3.org/Graphics/SVG/1.1/DTD/svg11.dtd">
<svg version="1.1" id="Ebene_1" xmlns="http://www.w3.org/2000/svg" xmlns:xlink="http://www.w3.org/1999/xlink" x="0px" y="0px"
	 width="64px" height="64px" viewBox="0 0 64 64" enable-background="new 0 0 64 64" xml:space="preserve">
<rect fill-rule="evenodd" clip-rule="evenodd" fill="#008089" width="64" height="64"/>
<g>
	<path fill="#FFFFFF" stroke="#909094" d="M55.5,36c0,3.866-4.768,7-8.806,7l-14.458-1L18.19,43c-4.038,0-9.69-3.134-9.69-7v-8
		c0-3.866,5.779-7,9.816-7l14.703,1l13.549-1c4.037,0,8.932,3.134,8.932,7V36z"/>
	<circle fill="none" stroke="#BC218C" cx="17.551" cy="33.2" r="5.051"/>
	<rect x="16.5" y="25.5" fill="#BC218C" stroke="#FFFFFF" width="2" height="9"/>
	<linearGradient id="SVGID_1_" gradientUnits="userSpaceOnUse" x1="29.5762" y1="27.6367" x2="46.4231" y2="37.3633">
		<stop  offset="0" style="stop-color:#A7CFD3"/>
		<stop  offset="0.0756" style="stop-color:#C0DDE0"/>
		<stop  offset="0.1939" style="stop-color:#E2EFF1"/>
		<stop  offset="0.2917" style="stop-color:#F7FBFB"/>
		<stop  offset="0.3562" style="stop-color:#FFFFFF"/>
		<stop  offset="0.4267" style="stop-color:#E3F0F1"/>
		<stop  offset="0.5102" style="stop-color:#C9E1E4"/>
		<stop  offset="0.596" style="stop-color:#B6D7DA"/>
		<stop  offset="0.6848" style="stop-color:#ABD1D5"/>
		<stop  offset="0.7809" style="stop-color:#A7CFD3"/>
		<stop  offset="0.7882" style="stop-color:#AFD3D7"/>
		<stop  offset="0.8158" style="stop-color:#C9DFE2"/>
		<stop  offset="0.8465" style="stop-color:#DCE9EB"/>
		<stop  offset="0.8815" style="stop-color:#EAF0F1"/>
		<stop  offset="0.9247" style="stop-color:#F3F4F5"/>
		<stop  offset="1" style="stop-color:#F5F5F6"/>
	</linearGradient>
	<rect x="28.5" y="29.5" fill="url(#SVGID_1_)" stroke="#89898C" width="19" height="6"/>
	<path fill="none" stroke="#909094" d="M55.5,37.125c-1.726,0-3.125-2.238-3.125-5c0-2.761,1.399-5,3.125-5"/>
</g>
<rect x="28" y="27" fill="#909094" width="6" height="1"/>
<rect x="35" y="27" fill="#909094" width="5" height="1"/>
</svg>
