<?xml version="1.0" encoding="utf-8"?>
<!-- Generator: Adobe Illustrator 24.1.0, SVG Export Plug-In . SVG Version: 6.00 Build 0)  -->
<svg version="1.1" id="Ebene_1" xmlns="http://www.w3.org/2000/svg" xmlns:xlink="http://www.w3.org/1999/xlink" x="0px" y="0px"
	 viewBox="0 0 60 60" enable-background="new 0 0 60 60" xml:space="preserve">
<path fill="#FFFFFF" d="M23.6,13.6c0,0.4-0.2,0.8-0.5,1.1c-0.7,0.7-1.8,0.7-2.5,0c-0.5-0.5-0.6-1.2-0.4-1.8c-1.1,0.1-2.1,0.6-3,1.5
	l-2.5,2.5c-0.8,0.8-1.3,1.9-1.5,3c0.6-0.2,1.3,0,1.8,0.4c0.7,0.7,0.7,1.8,0,2.5c-0.3,0.3-0.7,0.5-1.1,0.5c0.2,0.4,0.5,0.7,0.8,1
	c0.1,0.1,0.4,0.1,0.5,0l9.4-9.4c0.1-0.1,0.1-0.4,0-0.5C24.3,14,24,13.8,23.6,13.6z"/>
<path opacity="0.25" fill="#FFFFFF" enable-background="new    " d="M20.6,14.6c0.7,0.7,1.8,0.7,2.5,0c0.3-0.3,0.5-0.7,0.5-1.1
	c-1-0.6-2.3-0.9-3.4-0.7C20,13.5,20.2,14.1,20.6,14.6z"/>
<path opacity="0.25" fill="#FFFFFF" enable-background="new    " d="M15,20.2c-0.5-0.5-1.2-0.6-1.8-0.4c-0.2,1.2,0.1,2.4,0.7,3.4
	c0.4,0,0.8-0.2,1.1-0.5C15.7,22,15.7,20.9,15,20.2z"/>
<path fill="#FFFFFF" d="M21.2,38.9c-0.6-0.6-1.2-1.3-1.8-1.9l-2.1,3.5L17,46.2c-0.1,1,0.7,1.8,1.7,1.9c1,0.1,1.8-0.7,1.9-1.7
	l0.3-4.9l1.1-2C21.8,39.4,21.5,39.2,21.2,38.9z"/>
<path fill="#FFFFFF" d="M26.8,42.3l-1,2.8L28,52c0.3,0.9,1.3,1.5,2.2,1.2c0.9-0.3,1.5-1.3,1.2-2.2l-1.8-5.8l0.6-1.8
	C29.1,43.1,27.9,42.8,26.8,42.3z"/>
<path fill="#FFFFFF" d="M52.3,27.7l-6.9-2.2l-2.7,0.9c0.4,1.1,0.8,2.2,1,3.4l1.7-0.6l5.8,1.8c0.9,0.3,1.9-0.2,2.2-1.2
	C53.8,29,53.3,28,52.3,27.7z"/>
<path fill="#FFFFFF" d="M45.8,16.2l-5.1,0.9l-3.4,2c0.7,0.6,1.3,1.1,1.9,1.8c0.3,0.3,0.5,0.6,0.7,0.8l2-1.2l4.4-0.8
	c1-0.2,1.6-1.1,1.4-2.1C47.7,16.6,46.8,16,45.8,16.2z"/>
<path fill="#FFFFFF" d="M44.1,32.6l-0.7,0.7c-2.4,2.4-6.4,2.4-8.8,0l-7.2-7.2c4.6-4.6,6.4-7.4,7-9c-0.4-0.2-0.9-0.5-1.3-0.7l1.1-2
	l4.8-2c0.9-0.4,1.3-1.4,0.9-2.3c-0.4-0.9-1.4-1.3-2.3-0.9l-6,2.5l-1.9,3.5c-0.1,0-0.2-0.1-0.3-0.1c-1.7-0.5-3.7,0.1-5,1.4L16.8,24
	c-1.3,1.3-1.9,3.3-1.4,5c0,0.1,0.1,0.2,0.1,0.3L12,31.2l-2.5,6c-0.4,0.9,0,2,0.9,2.3c0.9,0.4,2,0,2.3-0.9l2-4.8l2-1.1
	c0.2,0.4,0.4,0.9,0.7,1.3c1.6-0.6,4.4-2.3,9-7l7.2,7.2c2.4,2.4,2.4,6.4,0,8.8L33,43.7c1.4,0.1,2.8,0.1,4.3-0.1
	c3.5-0.4,6.4-3.3,6.8-6.8C44.2,35.4,44.2,34,44.1,32.6z"/>
<path opacity="0.75" fill="#FFFFFF" enable-background="new    " d="M33.7,34.2L26.5,27c-4.6,4.6-7.4,6.4-9,7c1,1.8,2.3,3.5,3.8,4.9
	c0.3,0.3,0.6,0.5,0.9,0.7c3,2.4,6.8,3.8,10.8,4.1l0.7-0.7C36.1,40.6,36.1,36.7,33.7,34.2z"/>
<path opacity="0.75" fill="#FFFFFF" enable-background="new    " d="M39.3,20.8c-1.4-1.5-3.1-2.8-4.9-3.8c-0.6,1.6-2.3,4.4-7,9
	l7.2,7.2c2.4,2.4,6.4,2.4,8.8,0l0.7-0.7c-0.3-4-1.7-7.8-4.1-10.9C39.8,21.4,39.6,21.1,39.3,20.8z"/>
</svg>
