<?xml version="1.0" encoding="utf-8"?>
<!-- Generator: Adobe Illustrator 24.2.1, SVG Export Plug-In . SVG Version: 6.00 Build 0)  -->
<svg version="1.1" id="Ebene_1" xmlns="http://www.w3.org/2000/svg" xmlns:xlink="http://www.w3.org/1999/xlink" x="0px" y="0px"
	 viewBox="0 0 60 60" enable-background="new 0 0 60 60" xml:space="preserve">
<g>
	<path fill="#FFFFFF" d="M28.9,40.7c-2.2,0-4,1.8-4,4c0,2.2,1.8,4,4,4c2.2,0,4-1.8,4-4C32.9,42.5,31.1,40.7,28.9,40.7z"/>
	<g>
		<path fill="#FFFFFF" d="M39.5,15.9c-1.8-3-4.8-4.6-8.9-4.6c-5,0-9.9,2.3-11.6,3.2l2.8,5.2c1.5-0.8,5.6-2.5,8.8-2.5
			c1.8,0,3.1,0.6,3.8,1.7c1.4,2.4,0.6,3.7-3.8,6.7c-1.1,0.7-2,1.3-2.7,2.1c-1.7,1.9-2.4,4.7-2.2,8h5.9c0,0,0-0.1,0-0.1
			c-0.2-2.1,0.2-3.5,0.7-4c0.2-0.2,0.8-0.6,1.5-1.1C36.7,28.7,44.2,23.7,39.5,15.9z"/>
	</g>
</g>
</svg>
